<svg width="36" height="35" viewBox="0 0 36 35" fill="none" xmlns="http://www.w3.org/2000/svg">
<path d="M34.9235 21.6249H32.6174C32.2986 21.6249 32.0408 21.8831 32.0408 22.2014H26.2754C26.1221 22.2014 25.9756 22.2619 25.8678 22.3703L22.6202 25.618L11.1862 23.6295C10.9155 23.5824 10.6377 23.5951 10.3724 23.6667C10.1071 23.7383 9.86064 23.8671 9.65034 24.044C9.43997 24.2208 9.27088 24.4415 9.15494 24.6906C9.039 24.9397 8.97903 25.2112 8.97925 25.4859C8.97925 26.153 9.33728 26.7768 9.91382 27.1135L22.491 34.45C22.7789 34.6186 23.1065 34.7073 23.44 34.7071C23.7283 34.7071 24.0166 34.6408 24.2835 34.5076L30.4473 31.426H32.0408C32.0408 31.7443 32.2986 32.0026 32.6174 32.0026H34.9235C35.2424 32.0026 35.5001 31.7443 35.5001 31.426V22.2014C35.5001 21.8831 35.2424 21.6249 34.9235 21.6249ZM32.0408 30.2729H30.3112C30.2219 30.2729 30.1331 30.2937 30.0535 30.3335L23.7675 33.4768C23.6589 33.5312 23.5384 33.5577 23.417 33.5538C23.2956 33.5499 23.177 33.5157 23.0722 33.4543L10.4955 26.1178C10.3852 26.0532 10.2937 25.961 10.23 25.8501C10.1663 25.7393 10.1326 25.6138 10.1323 25.4859C10.1323 25.3793 10.1556 25.2739 10.2006 25.1771C10.2455 25.0804 10.3112 24.9947 10.3928 24.926C10.4745 24.8573 10.5701 24.8074 10.6731 24.7796C10.7761 24.7518 10.884 24.7469 10.9891 24.7653L21.6228 26.6148L21.1558 27.0818C20.7395 27.4986 20.51 28.0527 20.51 28.6419C20.51 29.8596 21.5005 30.8495 22.717 30.8495C23.3068 30.8495 23.8609 30.62 24.2777 30.2026L27.2596 27.2213L26.4444 26.4061L23.4625 29.388C23.2643 29.5848 22.9964 29.6956 22.717 29.6964C22.1359 29.6964 21.6631 29.2236 21.6631 28.6419C21.6631 28.3606 21.7727 28.0954 21.9716 27.8965L26.5141 23.3545H32.0408V30.2729ZM34.347 30.8495H33.1939V22.7779H34.347V30.8495ZM21.0866 8.94098C19.1788 8.94098 17.6273 10.4924 17.6273 12.4002C17.6273 14.308 19.1788 15.8595 21.0866 15.8595C22.9944 15.8595 24.5458 14.308 24.5458 12.4002C24.5458 10.4924 22.9944 8.94098 21.0866 8.94098ZM21.0866 14.7064C19.8147 14.7064 18.7804 13.6721 18.7804 12.4002C18.7804 11.1284 19.8147 10.0941 21.0866 10.0941C22.3584 10.0941 23.3927 11.1284 23.3927 12.4002C23.3927 13.6721 22.3584 14.7064 21.0866 14.7064Z" fill="#063254"/>
<path d="M32.0408 0.292908H10.1322C9.81342 0.292908 9.55571 0.551198 9.55571 0.869448V5.48177H4.94339C4.79003 5.48177 4.64359 5.5423 4.53578 5.65069L0.5 9.68647L1.31523 10.5017L5.18208 6.63485H9.55571V10.0941H6.67301V11.2472H14.168C14.804 11.2472 15.3211 11.7643 15.3211 12.4002C15.3211 12.7075 15.2012 12.997 14.9827 13.2149C14.7642 13.4328 14.4747 13.5533 14.168 13.5533H10.1322C10.056 13.5533 9.98052 13.5686 9.91028 13.5983C9.84067 13.6272 9.7774 13.6696 9.72406 13.7228L7.99502 15.4519L8.81024 16.2671L9.55571 15.5216V18.7422H0.907614V19.8953H32.0408C32.3596 19.8953 32.6173 19.637 32.6173 19.3187V0.869448C32.6173 0.551198 32.3596 0.292908 32.0408 0.292908ZM10.7088 6.05831H12.3652C12.1565 6.86777 11.5177 7.506 10.7088 7.71528V6.05831ZM10.7088 18.7422V17.0852C11.5177 17.2945 12.1565 17.9327 12.3652 18.7422H10.7088ZM31.4642 18.7422H29.8078C30.0165 17.9327 30.6553 17.2945 31.4642 17.0852V18.7422ZM31.4642 15.9114C30.0188 16.1552 28.8779 17.2968 28.6334 18.7422H13.5396C13.2957 17.2968 12.1542 16.1558 10.7088 15.9114V14.7064H14.168C14.7826 14.7064 15.362 14.466 15.7979 14.0301C16.2343 13.5943 16.4742 13.0154 16.4742 12.4002C16.4742 11.1284 15.4399 10.0941 14.168 10.0941H10.7088V8.88912C12.1542 8.64524 13.2951 7.50369 13.5396 6.05831H28.6334C28.8773 7.50369 30.0188 8.64466 31.4642 8.88912V15.9114ZM31.4642 7.71528C30.6553 7.506 30.0165 6.86777 29.8078 6.05831H31.4642V7.71528ZM31.4642 4.90523H10.7088V3.75215H31.4642V4.90523ZM31.4642 2.59907H10.7088V1.44599H31.4642V2.59907Z" fill="#063254"/>
</svg>
