<svg width="33" height="37" viewBox="0 0 33 37" fill="none" xmlns="http://www.w3.org/2000/svg">
<path d="M29.2625 30.7717H31.6475C31.741 30.7717 31.8306 30.7346 31.8968 30.6686C31.9629 30.6025 32 30.513 32 30.4196V1.35211C32 1.25873 31.9629 1.16917 31.8968 1.10313C31.8306 1.0371 31.741 1 31.6475 1H8.25051C8.157 1 8.06733 1.0371 8.00121 1.10313C7.93509 1.16917 7.89795 1.25873 7.89795 1.35211V3.73408" stroke="#063254" stroke-miterlimit="10" stroke-linecap="round" stroke-linejoin="round"/>
<path d="M29.2625 25.2605V4.08618C29.2625 3.9928 29.2254 3.90324 29.1593 3.8372C29.0932 3.77117 29.0035 3.73407 28.91 3.73407H5.51296C5.41945 3.73407 5.32978 3.77117 5.26366 3.8372C5.19754 3.90324 5.1604 3.9928 5.1604 4.08618V11.1056M12.6782 33.5058H28.91C29.0035 33.5058 29.0932 33.4687 29.1593 33.4027C29.2254 33.3367 29.2625 33.2471 29.2625 33.1537V27.7253M5.1604 13.5704V23.2105M9.23314 20.5573H10.731M12.4588 20.5573H13.9567M15.7373 20.5573H25.1899M18.7679 23.4717H10.438M17.9659 26.386H13.3916M18.7679 29.3003H14.1144C14.1148 29.3311 14.1167 29.3615 14.1167 29.3924" stroke="#063254" stroke-miterlimit="10" stroke-linecap="round" stroke-linejoin="round"/>
<path d="M23.1228 29.5341C24.8636 29.5341 26.2748 28.1247 26.2748 26.386C26.2748 24.6474 24.8636 23.2379 23.1228 23.2379C21.3819 23.2379 19.9707 24.6474 19.9707 26.386C19.9707 28.1247 21.3819 29.5341 23.1228 29.5341Z" stroke="#063254" stroke-miterlimit="10" stroke-linecap="round" stroke-linejoin="round"/>
<path d="M24.1199 25.3901L22.1256 27.3819M22.1256 25.3901L24.1199 27.3819M9.23306 7.93955H16.763M9.23306 10.8539H15.1591M9.23306 13.7682H14.277M9.23306 16.6826H25.1898M21.1643 8.33251V10.1746M21.1643 11.8253V12.0656M1 30.6248C1.57812 33.685 4.26842 36 7.50059 36C11.1545 36 14.1165 33.0417 14.1165 29.3924C14.1165 25.7431 11.1545 22.7848 7.50059 22.7848C4.26842 22.7848 1.57812 25.0998 1 28.16M20.1967 6.58054L17.0093 12.0945C16.5792 12.8384 17.1168 13.7683 17.9768 13.7683H24.3518C25.2119 13.7683 25.7494 12.8384 25.3193 12.0945L22.1319 6.58054C21.7019 5.8366 20.6268 5.8366 20.1967 6.58054Z" stroke="#063254" stroke-miterlimit="10" stroke-linecap="round" stroke-linejoin="round"/>
<path d="M4.98218 32.078C4.98218 30.689 6.10966 29.5629 7.50049 29.5629C8.89133 29.5629 10.0188 30.689 10.0188 32.078M5.75047 26.4509V27.2183M9.25052 27.2183V26.4509" stroke="#063254" stroke-miterlimit="10" stroke-linecap="round" stroke-linejoin="round"/>
</svg>
