<svg width="60" height="58" viewBox="0 0 60 58" fill="none" xmlns="http://www.w3.org/2000/svg">
<path d="M25.5226 47.7912C29.0351 47.7912 31.8826 44.9437 31.8826 41.4312C31.8826 37.9186 29.0351 35.0712 25.5226 35.0712C22.0101 35.0712 19.1626 37.9186 19.1626 41.4312C19.1626 44.9437 22.0101 47.7912 25.5226 47.7912Z" fill="#404049"/>
<path d="M29.8483 56.4696L27.3095 57.3931C26.8282 57.5684 26.3035 57.5851 25.812 57.4409C25.3204 57.2967 24.8879 56.9991 24.5776 56.5915L11.283 39.1203L22.4467 35.0571L31.1889 53.1696C31.3348 53.4719 31.4158 53.8014 31.4265 54.1368C31.4372 54.4723 31.3775 54.8063 31.2512 55.1173C31.1249 55.4282 30.9347 55.7092 30.6931 55.9422C30.4515 56.1751 30.1637 56.3548 29.8483 56.4696Z" fill="#DEDEEA"/>
<path d="M27.0611 44.6234C23.3233 45.3518 21.0208 48.3612 20.1948 50.8399L17.2042 46.9052L11.283 39.1146L22.4373 35.0627L26.943 44.3674L27.0611 44.6234Z" fill="black" fill-opacity="0.0627451"/>
<path d="M34.1224 4.43555C28.1036 12.003 19.1411 18.0518 11.6177 21.5318L15.5983 32.4677L19.578 43.4037C27.5777 41.2343 38.3317 40.1065 47.8061 42.0349C46.097 34.5265 44.4808 28.683 42.3189 22.7421C40.1561 16.8012 37.638 11.2859 34.1224 4.43555Z" fill="#F0F0FC"/>
<path d="M15.6216 44.8437L19.5779 43.4037L11.6176 21.5319L7.6613 22.9719C1.62099 25.1703 -1.49339 31.8481 0.705052 37.8875C2.90349 43.9278 9.58224 47.0422 15.6216 44.8437Z" fill="#F7524B"/>
<path d="M47.82 42.0283C38.3382 40.1008 27.5775 41.2408 19.59 43.4055L15.6366 44.8418C14.3562 45.3065 13.005 45.546 11.6428 45.5496C6.9019 45.5496 2.43659 42.618 0.705024 37.8968C0.0100949 35.9737 -0.166715 33.9017 0.192344 31.8887C0.551404 29.8757 1.4337 27.9925 2.75065 26.4283C5.56409 31.7393 10.8563 34.8874 16.9744 36.2252C26.1994 38.2512 37.3547 36.1071 44.9475 30.8346C45.9506 34.2574 46.876 37.8968 47.82 42.0283Z" fill="black" fill-opacity="0.0627451"/>
<path d="M51.6009 43.805C50.8616 44.074 50.0457 44.0383 49.3326 43.7059C48.6195 43.3734 48.0677 42.7714 47.7984 42.0322L34.1175 4.44403C33.9803 4.07702 33.9172 3.68648 33.9317 3.29494C33.9463 2.90341 34.0382 2.51863 34.2023 2.16282C34.3663 1.80701 34.5992 1.48721 34.8875 1.22189C35.1758 0.956561 35.5138 0.750959 35.882 0.616948C36.2502 0.482936 36.6412 0.423169 37.0326 0.441096C37.424 0.459023 37.808 0.554288 38.1624 0.721395C38.5168 0.888501 38.8345 1.12414 39.0974 1.41471C39.3602 1.70528 39.5629 2.04503 39.6937 2.41434L53.3747 40.0025C53.6436 40.7419 53.6079 41.5579 53.2752 42.271C52.9426 42.9841 52.3403 43.5359 51.6009 43.805Z" fill="#F7524B"/>
<path d="M49.8591 13.0231C49.6793 13.0232 49.5029 12.9739 49.3491 12.8806C49.1953 12.7874 49.07 12.6537 48.9868 12.4942C48.9037 12.3347 48.8659 12.1555 48.8776 11.976C48.8892 11.7965 48.9498 11.6237 49.0529 11.4762L51.4473 8.04218C51.5211 7.93624 51.6152 7.84589 51.7239 7.77628C51.8327 7.70667 51.9542 7.65917 52.0813 7.6365C52.2084 7.61382 52.3388 7.6164 52.465 7.64411C52.5911 7.67181 52.7106 7.72409 52.8165 7.79796C52.9224 7.87183 53.0128 7.96584 53.0824 8.07463C53.152 8.18342 53.1995 8.30485 53.2222 8.43199C53.2449 8.55913 53.2423 8.6895 53.2146 8.81564C53.1869 8.94179 53.1346 9.06124 53.0607 9.16718L50.6654 12.6022C50.5748 12.732 50.4542 12.8381 50.3138 12.9113C50.1734 12.9846 50.0175 13.023 49.8591 13.0231ZM59.9654 27.4437C60.0333 27.1917 59.9984 26.9231 59.8683 26.6968C59.7382 26.4706 59.5236 26.3052 59.2716 26.2372L55.2301 25.1459C54.9784 25.0798 54.7108 25.1156 54.4853 25.2455C54.2598 25.3753 54.0946 25.5888 54.0254 25.8397C53.9575 26.0917 53.9924 26.3603 54.1225 26.5866C54.2526 26.8129 54.4672 26.9782 54.7191 27.0462L58.7607 28.1375C58.8854 28.1712 59.0155 28.1801 59.1435 28.1634C59.2716 28.1468 59.3951 28.1051 59.507 28.0406C59.6189 27.9762 59.717 27.8903 59.7957 27.7879C59.8743 27.6854 59.932 27.5685 59.9654 27.4437ZM52.7541 19.9916L56.7076 18.5525C56.8289 18.5084 56.9404 18.4408 57.0356 18.3535C57.1308 18.2663 57.2079 18.1612 57.2624 18.0442C57.317 17.9272 57.348 17.8006 57.3537 17.6716C57.3593 17.5427 57.3395 17.4138 57.2954 17.2925C57.2513 17.1712 57.1837 17.0597 57.0964 16.9645C57.0092 16.8693 56.9041 16.7922 56.7871 16.7376C56.6701 16.683 56.5435 16.652 56.4145 16.6464C56.2856 16.6407 56.1567 16.6605 56.0354 16.7047L52.081 18.1437C51.9597 18.1879 51.8483 18.2556 51.7531 18.3429C51.6579 18.4301 51.5808 18.5353 51.5263 18.6523C51.4718 18.7694 51.4408 18.896 51.4352 19.025C51.4296 19.154 51.4495 19.2829 51.4937 19.4042C51.5379 19.5255 51.6055 19.637 51.6928 19.7322C51.7801 19.8273 51.8852 19.9044 52.0023 19.9589C52.1193 20.0135 52.246 20.0444 52.375 20.05C52.504 20.0556 52.6328 20.0358 52.7541 19.9916Z" fill="#404049"/>
</svg>
