<svg width="32" height="35" viewBox="0 0 32 35" fill="none" xmlns="http://www.w3.org/2000/svg">
<path d="M26.8476 26.0858L23.1562 18.5936L26.9843 16.7561L26.5085 15.7717L22.2046 17.8499C22.1399 17.8814 22.082 17.9253 22.0343 17.9792C21.9866 18.0331 21.95 18.0959 21.9267 18.164C21.9033 18.2321 21.8936 18.3041 21.8981 18.376C21.9026 18.4478 21.9213 18.5181 21.953 18.5827L22.2319 19.1295C21.4444 19.2006 20.0882 19.0584 17.8569 18.1561C17.0388 17.793 16.1413 17.6456 15.25 17.728C14.3587 17.8103 13.5033 18.1196 12.7655 18.6264C12.0536 19.1235 11.429 19.7352 10.9171 20.4366C10.3877 20.2835 9.88308 20.0551 9.41865 19.7584L9.5499 19.5342C9.58591 19.472 9.60927 19.4032 9.61865 19.3319C9.62804 19.2605 9.62326 19.1881 9.60459 19.1186C9.58592 19.0488 9.55359 18.9833 9.50947 18.9261C9.46535 18.8688 9.41032 18.8209 9.34756 18.785L5.31709 16.4827L4.77022 17.4288L8.33037 19.4631L4.1085 26.7147L0.54834 24.6803L0.00146484 25.6264L4.01553 27.9342C4.1411 28.0055 4.28977 28.0243 4.42911 27.9864C4.56845 27.9485 4.68713 27.857 4.75928 27.7319L4.89053 27.5077L5.93506 28.2788L5.82022 28.4483C5.71104 28.6062 5.63408 28.7841 5.59373 28.9718C5.55338 29.1594 5.55043 29.3532 5.58506 29.542C5.61887 29.7355 5.69095 29.9203 5.79706 30.0856C5.90317 30.2508 6.04119 30.3933 6.20303 30.5045L6.46006 30.6795C6.7061 30.8494 6.99778 30.941 7.29678 30.942C7.33866 30.9447 7.38067 30.9447 7.42256 30.942C7.50311 31.2681 7.69694 31.555 7.96943 31.7514L8.22647 31.9319C8.47099 32.1 8.76095 32.1897 9.05771 32.1889C9.14867 32.1973 9.2402 32.1973 9.33115 32.1889C9.43661 32.1677 9.53934 32.1347 9.6374 32.0905C9.74689 32.2758 9.89408 32.436 10.0694 32.5608L10.3265 32.7358C10.5705 32.9056 10.8604 32.9971 11.1577 32.9983H11.289C11.3786 33.3261 11.5822 33.6111 11.8632 33.8022L12.1147 33.9772C12.3593 34.1454 12.6492 34.235 12.946 34.2342C13.1867 34.2347 13.4239 34.1767 13.6373 34.0652C13.8507 33.9538 14.0338 33.7922 14.171 33.5944L14.3241 33.3702L15.8007 34.2616C16.0534 34.4138 16.3424 34.495 16.6374 34.4967C16.9201 34.4969 17.1981 34.4239 17.4444 34.285C17.6906 34.1461 17.8968 33.9458 18.0429 33.7038C18.1439 33.5357 18.2125 33.3502 18.2452 33.1569C18.3908 33.2 18.5418 33.2221 18.6937 33.2225C18.9764 33.2226 19.2544 33.1497 19.5006 33.0108C19.7469 32.8718 19.953 32.6716 20.0991 32.4295C20.2028 32.2524 20.2732 32.0578 20.3069 31.8553C20.4505 31.8993 20.5998 31.9214 20.7499 31.9209C21.0317 31.9201 21.3086 31.8468 21.5538 31.7079C21.799 31.569 22.0043 31.3693 22.1499 31.128C22.2449 30.9694 22.3115 30.7954 22.3468 30.6139L22.4288 30.6631C22.6831 30.8163 22.9742 30.8975 23.271 30.8983C23.5537 30.8984 23.8317 30.8255 24.078 30.6866C24.3242 30.5476 24.5304 30.3474 24.6765 30.1053C24.8277 29.8505 24.9071 29.5595 24.9062 29.2631C24.9072 29.031 24.859 28.8013 24.7648 28.5892C24.6705 28.3771 24.5323 28.1874 24.3593 28.0327C24.7253 27.4336 25.2045 26.9117 25.7702 26.4959L26.0819 27.1249C26.127 27.2169 26.1971 27.2944 26.2841 27.3486C26.3711 27.4027 26.4716 27.4313 26.5741 27.4311C26.6556 27.4306 26.7359 27.4119 26.8093 27.3764L31.1132 25.2983L30.6374 24.3139L26.8476 26.0858ZM7.63584 29.6788C7.60681 29.7216 7.56949 29.7583 7.5261 29.7865C7.4827 29.8147 7.43409 29.834 7.38314 29.8432C7.33218 29.8523 7.27991 29.8512 7.22939 29.8399C7.17887 29.8286 7.13112 29.8073 7.08897 29.7772L6.83193 29.6022C6.78907 29.5732 6.75244 29.5359 6.7242 29.4925C6.69597 29.4491 6.6767 29.4005 6.66753 29.3495C6.65835 29.2985 6.65947 29.2463 6.67079 29.1957C6.68212 29.1452 6.70344 29.0975 6.7335 29.0553L7.5374 27.8905C7.59518 27.8071 7.68369 27.7501 7.7835 27.7319C7.83375 27.7233 7.88521 27.7246 7.93495 27.7359C7.98468 27.7471 8.0317 27.7681 8.07334 27.7975L8.3249 27.9725C8.36779 27.9994 8.40423 28.0353 8.43164 28.0779C8.45905 28.1204 8.47676 28.1685 8.4835 28.2186C8.49418 28.2684 8.49435 28.32 8.48399 28.3699C8.47363 28.4198 8.45298 28.467 8.42334 28.5084L7.63584 29.6788ZM9.42412 30.9147C9.36634 30.9981 9.27783 31.0551 9.17803 31.0733C9.0773 31.0895 8.97414 31.0681 8.88818 31.0131L8.63115 30.8381C8.58828 30.8091 8.55166 30.7718 8.52342 30.7284C8.49519 30.685 8.47592 30.6364 8.46674 30.5854C8.45757 30.5345 8.45868 30.4822 8.47001 30.4317C8.48134 30.3812 8.50266 30.3334 8.53271 30.2913L9.62646 28.6889C9.65438 28.647 9.69064 28.6113 9.73298 28.584C9.77533 28.5567 9.82284 28.5384 9.87256 28.5303H9.94365C10.0215 28.5301 10.0976 28.5529 10.1624 28.5959L10.414 28.7709C10.4981 28.8289 10.5569 28.917 10.578 29.017C10.587 29.0673 10.5858 29.1188 10.5745 29.1686C10.5632 29.2184 10.5421 29.2654 10.5124 29.3069L9.42412 30.9147ZM11.5241 31.7186C11.4951 31.7615 11.4578 31.7981 11.4144 31.8263C11.371 31.8546 11.3224 31.8738 11.2714 31.883C11.2205 31.8922 11.1682 31.8911 11.1177 31.8797C11.0671 31.8684 11.0194 31.8471 10.9772 31.817L10.7202 31.642C10.6381 31.5831 10.5814 31.4951 10.5616 31.3959C10.5454 31.2952 10.5668 31.1921 10.6218 31.1061L11.4147 29.9577C11.4735 29.8714 11.5641 29.812 11.6667 29.7925C11.7692 29.773 11.8753 29.7951 11.9616 29.8538L12.2187 30.0342C12.2615 30.0633 12.2981 30.1006 12.3264 30.144C12.3546 30.1874 12.3739 30.236 12.3831 30.2869C12.3922 30.3379 12.3911 30.3902 12.3798 30.4407C12.3685 30.4912 12.3471 30.5389 12.3171 30.5811L11.5241 31.7186ZM13.7991 32.2655L13.3124 32.9327C13.2519 33.0169 13.161 33.0743 13.0589 33.0926C12.9568 33.111 12.8516 33.0889 12.7655 33.0311L12.5085 32.8561C12.4656 32.8271 12.429 32.7898 12.4008 32.7464C12.3725 32.703 12.3533 32.6544 12.3441 32.6034C12.3349 32.5524 12.336 32.5002 12.3474 32.4497C12.3587 32.3991 12.38 32.3514 12.4101 32.3092L12.8968 31.6038C12.9258 31.5609 12.9631 31.5243 13.0065 31.496C13.0499 31.4678 13.0985 31.4485 13.1495 31.4394C13.2004 31.4302 13.2527 31.4313 13.3032 31.4426C13.3538 31.454 13.4015 31.4753 13.4437 31.5053L13.6952 31.6803C13.7385 31.7089 13.7756 31.7459 13.8044 31.7891C13.8332 31.8323 13.853 31.8808 13.8627 31.9318C13.8723 31.9828 13.8717 32.0352 13.8608 32.0859C13.8499 32.1367 13.8289 32.1847 13.7991 32.2272V32.2655ZM23.7851 29.5311C23.7105 29.6537 23.5907 29.7421 23.4515 29.7772C23.3122 29.8118 23.1648 29.7901 23.0413 29.717L19.7601 27.7538L19.2132 28.6889L21.078 29.7827C21.2007 29.8573 21.289 29.9771 21.3241 30.1163C21.3587 30.2556 21.3371 30.4029 21.264 30.5264C21.1894 30.649 21.0696 30.7374 20.9304 30.7725C20.7911 30.8071 20.6437 30.7855 20.5202 30.7124L18.1905 29.3069L17.6437 30.242L19.0437 31.0842C19.164 31.1613 19.2516 31.2801 19.2897 31.4178C19.3132 31.5213 19.306 31.6293 19.2692 31.7287C19.2323 31.8282 19.1673 31.9148 19.0821 31.9779C18.9969 32.0411 18.8952 32.0781 18.7893 32.0845C18.6835 32.0909 18.578 32.0664 18.4858 32.0139L16.1562 30.6084L15.6093 31.5436L17.0147 32.3967C17.1063 32.4819 17.1659 32.5958 17.1836 32.7196C17.2014 32.8433 17.1762 32.9694 17.1122 33.0769C17.0483 33.1843 16.9494 33.2666 16.8322 33.31C16.7149 33.3534 16.5864 33.3554 16.4679 33.3155L14.9147 32.3749C14.9744 32.1614 14.9874 31.9376 14.953 31.7186C14.9185 31.5275 14.8467 31.3451 14.7416 31.1818C14.6365 31.0185 14.5002 30.8776 14.3405 30.767L14.0671 30.6249C13.8901 30.5036 13.6884 30.4232 13.4765 30.3897C13.4873 30.2842 13.4873 30.178 13.4765 30.0725C13.4428 29.8805 13.3707 29.6972 13.2645 29.5337C13.1583 29.3702 13.0202 29.2298 12.8585 29.1209L12.6069 28.9459C12.325 28.7529 11.9847 28.6639 11.6444 28.6944C11.5466 28.3646 11.3355 28.0799 11.0483 27.8905L10.7913 27.7155C10.4722 27.4956 10.0789 27.411 9.69756 27.4803C9.59274 27.5015 9.49019 27.5326 9.39131 27.5733C9.2816 27.3897 9.13438 27.2313 8.95928 27.1084L8.70225 26.9334C8.37922 26.7118 7.98157 26.6271 7.59625 26.6978C7.21093 26.7685 6.86928 26.9889 6.646 27.3108L6.59131 27.3928L5.49756 26.5725L8.87725 20.7209C9.32181 21.0006 9.79707 21.2281 10.2937 21.3991C9.75784 22.2035 9.39473 23.1104 9.22725 24.0624C9.241 24.3447 9.35109 24.6137 9.53917 24.8247C9.72725 25.0357 9.98196 25.1758 10.2608 25.2217C11.2562 25.4842 13.1374 25.085 14.5155 23.0342L23.5937 28.7272C23.6745 28.7751 23.7416 28.8431 23.7886 28.9245C23.8355 29.0059 23.8607 29.0981 23.8616 29.192C23.8616 29.2902 23.8351 29.3865 23.7851 29.4709V29.5311ZM23.4679 27.3436L19.4429 24.8225C20.035 24.4808 20.5389 24.0051 20.914 23.4334L19.9624 22.8866C19.5648 23.4519 19.0093 23.8875 18.3655 24.1389L14.6304 21.7983C14.5674 21.759 14.4972 21.7329 14.4238 21.7216C14.3505 21.7103 14.2756 21.7141 14.2038 21.7327C14.133 21.7507 14.0665 21.7827 14.0083 21.8269C13.95 21.871 13.9012 21.9264 13.8647 21.9897C12.9515 23.603 11.6772 24.1772 10.8733 24.1772C10.6799 24.197 10.4858 24.1466 10.3265 24.035C10.7893 22.2281 11.854 20.6329 13.3452 19.5124C13.9327 19.1022 14.6168 18.8523 15.3303 18.7871C16.0438 18.7218 16.7619 18.8437 17.414 19.1405C19.6562 20.0538 21.4335 20.3819 22.7077 20.1358L25.3054 25.4131C24.5682 25.9252 23.943 26.5821 23.4679 27.3436Z" fill="#063254"/>
<path d="M27.2031 23.7508L28.2925 23.2154L28.7748 24.1965L27.686 24.7324L27.2031 23.7508ZM26.4375 14.2188V4.92188C26.4379 4.84991 26.4241 4.77857 26.3969 4.71194C26.3697 4.64531 26.3296 4.5847 26.2789 4.5336L22.4508 0.705478C22.3997 0.654793 22.3391 0.614693 22.2724 0.587478C22.2058 0.560263 22.1345 0.546468 22.0625 0.546884H5.65625C5.36617 0.546884 5.08797 0.662118 4.88285 0.867236C4.67773 1.07235 4.5625 1.35055 4.5625 1.64063V14.7656H5.65625V1.64063H21.5156V4.37501C21.5156 4.66509 21.6309 4.94329 21.836 5.14841C22.0411 5.35353 22.3193 5.46876 22.6094 5.46876H25.3438V14.2188H26.4375ZM22.6094 4.37501V2.41173L24.5727 4.37501H22.6094Z" fill="#063254"/>
<path d="M10.0312 9.29688C10.0312 10.3785 10.352 11.4358 10.9529 12.3352C11.5538 13.2345 12.4079 13.9354 13.4072 14.3493C14.4065 14.7633 15.5061 14.8716 16.5669 14.6605C17.6277 14.4495 18.6022 13.9287 19.367 13.1639C20.1318 12.399 20.6527 11.4246 20.8637 10.3638C21.0747 9.30294 20.9664 8.20336 20.5525 7.20408C20.1385 6.20479 19.4376 5.35069 18.5383 4.74978C17.6389 4.14886 16.5816 3.82812 15.5 3.82812C14.0496 3.82812 12.6586 4.4043 11.633 5.42988C10.6074 6.45547 10.0313 7.84647 10.0312 9.29688ZM19.875 9.29688C19.875 10.1622 19.6184 11.008 19.1377 11.7275C18.6569 12.447 17.9737 13.0077 17.1742 13.3388C16.3748 13.67 15.4951 13.7566 14.6465 13.5878C13.7978 13.419 13.0183 13.0023 12.4064 12.3905C11.7946 11.7786 11.3779 10.9991 11.2091 10.1504C11.0403 9.30173 11.1269 8.42206 11.458 7.62264C11.7892 6.82321 12.3499 6.13993 13.0694 5.6592C13.7888 5.17846 14.6347 4.92188 15.5 4.92188C16.6603 4.92188 17.7731 5.38281 18.5936 6.20328C19.4141 7.02375 19.875 8.13655 19.875 9.29688Z" fill="#063254"/>
<path d="M13.4709 9.21484L12.6943 9.99141L14.0506 11.3422C14.153 11.444 14.2917 11.5012 14.4361 11.5012C14.5806 11.5012 14.7192 11.444 14.8217 11.3422L18.3053 7.86406L17.5287 7.10938L14.4389 10.2047L13.4709 9.21484Z" fill="#063254"/>
</svg>
