<svg width="36" height="35" viewBox="0 0 36 35" fill="none" xmlns="http://www.w3.org/2000/svg">
<path d="M28.7746 31.4233V32.8201C28.7746 33.4175 28.5243 33.9666 28.1287 34.3541V34.3622C27.7331 34.7578 27.1922 35 26.5947 35H5.82884C5.23138 35 4.69043 34.7578 4.29481 34.3622C3.8992 33.9666 3.65698 33.4175 3.65698 32.8201V5.75663C3.65698 5.15917 3.8992 4.61015 4.29481 4.21453C4.69043 3.81892 5.23138 3.5767 5.82884 3.5767H7.22561V2.17993C7.22561 1.58247 7.4759 1.03345 7.87152 0.637832C8.25906 0.242215 8.80808 0 9.40554 0H30.1714C30.7689 0 31.3098 0.242215 31.7054 0.637832C32.101 1.03345 32.3433 1.58247 32.3433 2.17993V29.2434C32.3433 29.8408 32.101 30.3899 31.7054 30.7855C31.3098 31.1811 30.7689 31.4233 30.1714 31.4233H28.7746ZM10.221 4.30334C9.99493 4.30334 9.80923 4.12572 9.80923 3.89158C9.80923 3.66551 9.99493 3.48789 10.221 3.48789H18.5935C18.8196 3.48789 19.0053 3.66551 19.0053 3.89158C19.0053 4.12572 18.8196 4.30334 18.5935 4.30334H10.221ZM10.221 7.73472C9.99493 7.73472 9.80923 7.54902 9.80923 7.32295C9.80923 7.09689 9.99493 6.91119 10.221 6.91119H18.5935C18.8196 6.91119 19.0053 7.09689 19.0053 7.32295C19.0053 7.54902 18.8196 7.73472 18.5935 7.73472H10.221ZM23.3813 7.64591C23.3813 7.41984 23.567 7.24221 23.7931 7.24221C24.0192 7.24221 24.2048 7.41984 24.2048 7.64591C24.2048 7.8639 24.2937 8.05767 24.4309 8.19493C24.5682 8.33218 24.7619 8.42099 24.9719 8.42099H24.9799C25.1899 8.42099 25.3836 8.33218 25.5209 8.19493C25.6581 8.05767 25.7469 7.8639 25.7469 7.64591C25.7469 7.43599 25.6662 7.24221 25.5209 7.10496C25.3836 6.95963 25.1899 6.87889 24.9799 6.87889C24.5359 6.87889 24.1403 6.70127 23.8496 6.41061L23.8254 6.38639C23.5509 6.09573 23.3813 5.70819 23.3813 5.28835C23.3813 4.84429 23.5589 4.44867 23.8496 4.15802C24.0434 3.96424 24.2856 3.81892 24.5601 3.74625V3.35871C24.5601 3.13264 24.7458 2.94694 24.9719 2.94694C25.1979 2.94694 25.3836 3.13264 25.3836 3.35871V3.74625C25.6581 3.81892 25.9084 3.96424 26.1022 4.15802C26.3929 4.44867 26.5705 4.84429 26.5705 5.28835C26.5705 5.51442 26.3848 5.69204 26.1587 5.69204C25.9326 5.69204 25.7469 5.51442 25.7469 5.28835C25.7469 5.07036 25.6662 4.87659 25.5209 4.73933C25.3836 4.60208 25.1899 4.51326 24.9799 4.51326H24.9719C24.7619 4.51326 24.5682 4.60208 24.4309 4.73933C24.2937 4.87659 24.2048 5.07036 24.2048 5.28835C24.2048 5.4902 24.2856 5.67589 24.4148 5.81315C24.4148 5.82122 24.4228 5.82122 24.4309 5.8293C24.5682 5.96655 24.7619 6.05536 24.9799 6.05536C25.4159 6.05536 25.8115 6.23299 26.1022 6.52364C26.3929 6.8143 26.5705 7.20992 26.5705 7.64591C26.5705 8.08997 26.3929 8.48558 26.1022 8.77624C25.9084 8.97001 25.6581 9.11534 25.3836 9.188V9.57555C25.3836 9.80161 25.1979 9.98731 24.9719 9.98731C24.7458 9.98731 24.5601 9.80161 24.5601 9.57555V9.188C24.2856 9.11534 24.0434 8.97001 23.8496 8.77624C23.5589 8.48558 23.3813 8.08997 23.3813 7.64591ZM24.9799 1.77624C26.2717 1.77624 27.4424 2.30104 28.2902 3.14879C29.138 3.99654 29.6708 5.17532 29.6708 6.46713C29.6708 7.75894 29.138 8.93772 28.2902 9.78547C27.4424 10.6332 26.2717 11.158 24.9799 11.158C23.6801 11.158 22.5093 10.6332 21.6616 9.78547C20.8138 8.93772 20.289 7.75894 20.289 6.46713C20.289 5.17532 20.8138 3.99654 21.6616 3.14879C22.5093 2.30104 23.6801 1.77624 24.9799 1.77624ZM27.717 3.7301C27.0145 3.02768 26.0457 2.59977 24.9799 2.59977C23.9061 2.59977 22.9373 3.02768 22.2429 3.7301C21.5405 4.43253 21.1045 5.40138 21.1045 6.46713C21.1045 7.53287 21.5405 8.50173 22.2429 9.20415C22.9373 9.90657 23.9061 10.3345 24.9799 10.3345C26.0457 10.3345 27.0145 9.90657 27.717 9.20415C28.4113 8.50173 28.8473 7.53287 28.8473 6.46713C28.8473 5.40138 28.4113 4.43253 27.717 3.7301ZM10.2775 11.158C10.0514 11.158 9.86575 10.9723 9.86575 10.7463C9.86575 10.5202 10.0514 10.3345 10.2775 10.3345H20.6685C20.8946 10.3345 21.0803 10.5202 21.0803 10.7463C21.0803 10.9723 20.8946 11.158 20.6685 11.158H10.2775ZM10.221 14.5813C9.99493 14.5813 9.80923 14.4037 9.80923 14.1696C9.80923 13.9435 9.99493 13.7659 10.221 13.7659H29.3559C29.582 13.7659 29.7677 13.9435 29.7677 14.1696C29.7677 14.4037 29.582 14.5813 29.3559 14.5813H10.221ZM10.221 18.0127C9.99493 18.0127 9.80923 17.827 9.80923 17.6009C9.80923 17.3749 9.99493 17.1892 10.221 17.1892H29.3559C29.582 17.1892 29.7677 17.3749 29.7677 17.6009C29.7677 17.827 29.582 18.0127 29.3559 18.0127H10.221ZM10.221 21.436C9.99493 21.436 9.80923 21.2503 9.80923 21.0242C9.80923 20.7982 9.99493 20.6125 10.221 20.6125H29.3559C29.582 20.6125 29.7677 20.7982 29.7677 21.0242C29.7677 21.2503 29.582 21.436 29.3559 21.436H10.221ZM10.221 24.8593C9.99493 24.8593 9.80923 24.6817 9.80923 24.4475C9.80923 24.2215 9.99493 24.0438 10.221 24.0438H29.3559C29.582 24.0438 29.7677 24.2215 29.7677 24.4475C29.7677 24.6817 29.582 24.8593 29.3559 24.8593H10.221ZM10.221 28.2907C9.99493 28.2907 9.80923 28.105 9.80923 27.8789C9.80923 27.6528 9.99493 27.4671 10.221 27.4671H29.3559C29.582 27.4671 29.7677 27.6528 29.7677 27.8789C29.7677 28.105 29.582 28.2907 29.3559 28.2907H10.221ZM7.22561 4.39216H5.82884C5.45744 4.39216 5.11834 4.54556 4.87613 4.79585H4.86806C4.62584 5.03806 4.47244 5.37716 4.47244 5.75663V32.8201C4.47244 33.1915 4.62584 33.5306 4.87613 33.7809C5.11834 34.0231 5.45744 34.1765 5.82884 34.1765H26.5947C26.9661 34.1765 27.3052 34.0231 27.5555 33.7809C27.7977 33.5306 27.9511 33.1915 27.9511 32.8201V31.4233H9.40554C8.80808 31.4233 8.25906 31.1811 7.87152 30.7855L7.84729 30.7612C7.46782 30.3656 7.22561 29.8328 7.22561 29.2434V4.39216ZM30.1714 0.823529H9.40554C9.03415 0.823529 8.69504 0.976932 8.44476 1.21915C8.20254 1.46943 8.04914 1.80854 8.04914 2.17993V29.2434C8.04914 29.6067 8.19447 29.9458 8.42861 30.188C8.43668 30.1961 8.44476 30.1961 8.44476 30.2042C8.69504 30.4544 9.03415 30.6078 9.40554 30.6078H30.1714C30.5428 30.6078 30.8819 30.4544 31.1241 30.2042C31.3744 29.9619 31.5278 29.6228 31.5278 29.2434V2.17993C31.5278 1.80854 31.3744 1.46943 31.1241 1.21915C30.8819 0.976932 30.5428 0.823529 30.1714 0.823529Z" fill="#063254"/>
</svg>
