<svg width="34" height="35" viewBox="0 0 34 35" fill="none" xmlns="http://www.w3.org/2000/svg">
<path d="M24.8723 0.000200884C20.0029 0.0344685 16.0054 4.02366 15.9613 8.89279C15.937 11.576 17.0779 14.0704 19.1058 15.8005C18.969 16.1604 18.7973 16.5061 18.5931 16.8325C17.9919 17.7933 18.6134 19.0541 19.7415 19.1649C19.8178 19.1724 19.8947 19.1648 19.968 19.1425C20.0413 19.1203 20.1095 19.0838 20.1687 19.0352C20.2279 18.9866 20.277 18.9268 20.3131 18.8592C20.3492 18.7917 20.3716 18.7177 20.3791 18.6414C20.3866 18.5652 20.379 18.4882 20.3567 18.4149C20.3344 18.3416 20.298 18.2734 20.2494 18.2142C20.2008 18.155 20.141 18.106 20.0734 18.0699C20.0058 18.0338 19.9318 18.0114 19.8556 18.0039C19.5888 17.9777 19.4402 17.6778 19.582 17.4512C19.9089 16.9286 20.166 16.3654 20.3467 15.776C20.3814 15.6629 20.3809 15.542 20.3452 15.4292C20.3096 15.3164 20.2405 15.2171 20.1471 15.1445C18.206 13.6349 17.1055 11.3601 17.1279 8.90322C17.1662 4.66709 20.6442 1.19651 24.8806 1.16669C29.2504 1.14015 32.7464 4.66526 32.7464 8.97591C32.7464 15.5331 27.4223 17.3602 24.2486 17.8657C24.173 17.8778 24.1004 17.9046 24.0352 17.9447C23.9699 17.9848 23.9131 18.0373 23.8682 18.0993C23.8232 18.1613 23.7909 18.2316 23.7731 18.3061C23.7553 18.3806 23.7523 18.4579 23.7643 18.5335C23.8149 18.8515 24.1132 19.0681 24.4321 19.0178C30.1495 18.107 33.9129 14.7357 33.9129 8.97598C33.9129 4.02905 29.8985 -0.0329002 24.8723 0.000200884Z" fill="#063254"/>
<path d="M25.2366 4.88495H24.6533C23.6885 4.88495 22.9035 5.66997 22.9035 6.63478V7.58261H21.9557C20.9908 7.58261 20.2058 8.36763 20.2058 9.33245V9.91573C20.2058 10.8805 20.9908 11.6656 21.9557 11.6656H22.9035V12.6134C22.9035 13.5782 23.6885 14.3632 24.6533 14.3632H25.2366C26.2014 14.3632 26.9864 13.5782 26.9864 12.6134V11.6656H27.9343C28.8991 11.6656 29.6841 10.8805 29.6841 9.91573V9.33245C29.6841 8.36763 28.8991 7.58261 27.9343 7.58261H26.9864V6.63478C26.9864 5.6699 26.2015 4.88495 25.2366 4.88495ZM27.9343 8.74917C28.2559 8.74917 28.5175 9.01084 28.5175 9.33245V9.91573C28.5175 10.2373 28.2559 10.499 27.9343 10.499H26.4032C26.2485 10.499 26.1001 10.5605 25.9907 10.6698C25.8813 10.7792 25.8199 10.9276 25.8199 11.0823V12.6134C25.8199 12.935 25.5582 13.1967 25.2366 13.1967H24.6533C24.3317 13.1967 24.07 12.935 24.07 12.6134V11.0823C24.07 10.9276 24.0086 10.7792 23.8992 10.6698C23.7898 10.5605 23.6415 10.499 23.4868 10.499H21.9557C21.6341 10.499 21.3724 10.2373 21.3724 9.91573V9.33245C21.3724 9.01084 21.6341 8.74917 21.9557 8.74917H23.4868C23.6415 8.74917 23.7898 8.68772 23.8992 8.57833C24.0086 8.46895 24.07 8.32059 24.07 8.16589V6.63478C24.07 6.31318 24.3317 6.05151 24.6533 6.05151H25.2366C25.5582 6.05151 25.8199 6.31318 25.8199 6.63478V8.16589C25.8199 8.32059 25.8813 8.46895 25.9907 8.57833C26.1001 8.68772 26.2485 8.74917 26.4032 8.74917H27.9343ZM24.5688 22.8014C23.4868 22.183 22.1105 22.3719 21.2217 23.2606C21.011 23.4717 19.8354 25.6613 16.9076 24.569C13.8117 23.414 11.0665 19.2462 13.2679 16.8144C13.6819 16.3634 13.9595 16.2358 14.074 16.1216C14.9654 15.2301 15.1559 13.852 14.5375 12.7701C13.5157 10.9825 12.0289 9.4962 10.2377 8.47175C9.17515 7.86404 7.80161 8.05383 6.89752 8.93276C-0.152056 15.7727 5.83136 27.1017 14.1909 31.6412C12.4064 33.9424 9.30136 34.3194 7.16372 33.2901C7.82997 32.6492 8.25204 31.8294 8.29812 30.967C8.35506 29.8819 7.95924 29.0111 7.21206 28.5777C5.79826 27.7579 3.82503 28.8412 4.0337 30.9444C4.11776 31.7898 4.49587 32.5687 5.09847 33.2134C4.9526 33.265 4.80359 33.3073 4.65234 33.34C3.95991 33.4893 2.23632 33.6186 1.18817 31.597C1.11518 31.4629 0.992506 31.3627 0.846485 31.318C0.700463 31.2733 0.542737 31.2876 0.407166 31.3579C0.271595 31.4282 0.168987 31.5489 0.121372 31.6939C0.0737559 31.839 0.0849278 31.997 0.152489 32.134C1.13655 34.032 2.91045 34.9089 4.89841 34.4803C5.32145 34.3892 5.73033 34.2417 6.11403 34.0416C6.661 34.3826 7.29678 34.6459 7.99926 34.8101C10.7911 35.4626 13.8612 34.4312 15.5427 31.7386C15.7248 31.4472 15.6165 31.061 15.3079 30.9075C7.26149 26.903 1.18139 16.1045 7.71032 9.76962C8.24402 9.25064 9.04516 9.13348 9.65862 9.48439C11.2693 10.4056 12.6062 11.742 13.5247 13.3491C13.8749 13.9616 13.7742 14.741 13.283 15.2618C13.1712 15.3402 13.0624 15.4228 12.9568 15.5093C11.8917 13.8703 10.574 12.4102 9.05252 11.183C8.99294 11.1348 8.92445 11.0989 8.85097 11.0773C8.7775 11.0556 8.70047 11.0486 8.62431 11.0568C8.54814 11.0649 8.47432 11.0879 8.40707 11.1246C8.33981 11.1613 8.28045 11.2108 8.23236 11.2705C8.18425 11.3301 8.14834 11.3985 8.1267 11.472C8.10506 11.5455 8.09811 11.6225 8.10623 11.6987C8.11435 11.7748 8.1374 11.8486 8.17405 11.9159C8.21071 11.9831 8.26025 12.0425 8.31985 12.0906C9.81734 13.2984 11.1039 14.7464 12.127 16.3757C8.46231 21.358 17.955 29.9325 22.0767 24.0562C22.5949 23.5636 23.3754 23.463 23.9899 23.8142C25.597 24.7328 26.9334 26.0698 27.8545 27.6803C28.2054 28.2938 28.0882 29.0949 27.5695 29.6284C27.485 29.7152 27.399 29.8005 27.3115 29.8843C26.3534 28.4007 25.1889 27.0609 23.8421 25.8951C23.7842 25.8449 23.717 25.8067 23.6443 25.7825C23.5716 25.7584 23.4949 25.7487 23.4185 25.7542C23.3421 25.7597 23.2675 25.7802 23.1991 25.8146C23.1306 25.8489 23.0695 25.8964 23.0194 25.9543C22.9693 26.0122 22.931 26.0794 22.9069 26.1521C22.8827 26.2248 22.8731 26.3015 22.8786 26.3779C22.8841 26.4543 22.9046 26.5289 22.9389 26.5973C22.9732 26.6658 23.0207 26.7269 23.0786 26.777C24.3806 27.9042 25.5004 29.2046 26.414 30.6471C23.7583 32.6349 20.8374 32.5865 18.7356 32.1335C18.5844 32.1009 18.4264 32.1297 18.2964 32.2136C18.1664 32.2975 18.0751 32.4295 18.0425 32.5808C18.0099 32.732 18.0387 32.89 18.1226 33.0199C18.2065 33.1499 18.3386 33.2413 18.4898 33.2738C22.427 34.1224 25.8386 33.0809 28.4059 30.4418C29.2853 29.5374 29.4749 28.1637 28.8672 27.1012C27.8428 25.3101 26.3565 23.8232 24.5688 22.8014ZM7.13324 30.9053C7.09934 31.5396 6.72764 32.1575 6.15749 32.6221C5.60636 32.1223 5.2615 31.5025 5.19457 30.8292C5.08003 29.6755 6.03405 29.2429 6.62681 29.5869C6.98706 29.7958 7.16685 30.2643 7.13324 30.9053Z" fill="#063254"/>
</svg>
