<svg width="36" height="35" viewBox="0 0 36 35" fill="none" xmlns="http://www.w3.org/2000/svg">
<path fill-rule="evenodd" clip-rule="evenodd" d="M34.4267 33.9391H26.5463V32.2102H34.4267V33.9391ZM28.7429 30.4313C28.7384 30.3768 28.7293 30.3231 28.7066 30.2722C27.8551 28.1791 27.6786 25.7526 28.1677 22.8543C28.1854 22.7517 28.1721 22.6463 28.1294 22.5512C28.0867 22.456 28.0165 22.3754 27.9276 22.3194L24.5716 20.2182C23.9518 19.8294 24.1264 18.9017 24.8298 18.7467C25.0472 18.6994 25.2646 18.7369 25.4503 18.8517L29.4902 21.3827C29.849 21.6056 30.319 21.3495 30.319 20.934V12.8812C31.9584 14.939 32.4023 18.74 32.8009 22.1482C33.0001 23.8248 33.1859 25.4089 33.4984 26.7607C33.5618 27.069 33.6252 29.5094 33.4893 31.1498H28.7973L28.7429 30.4313ZM8.86059 28.8248H27.1351C26.7501 27.0937 26.7229 25.1789 27.0536 23.0281L23.9965 21.1138C23.1133 20.5619 22.8507 19.4036 23.4123 18.5331C23.9686 17.6647 25.1438 17.404 26.0255 17.9562L29.2411 19.9698V5.58221H26.8136C25.6269 5.58221 24.6578 4.62861 24.6578 3.45645V1.05908H7.83704C7.23922 1.05908 6.75457 1.53719 6.75457 2.12442V19.9699L9.97473 17.9563C10.4005 17.6895 10.9077 17.6029 11.4014 17.7123C13.0536 18.0772 13.4168 20.2278 12.0037 21.1138L8.94667 23.0281C9.27725 25.1789 9.25008 27.0937 8.86059 28.8248ZM2.51094 31.1498C2.37053 29.5094 2.43394 27.0691 2.50186 26.7607C2.81435 25.4089 3.00001 23.8248 3.19484 22.1482C3.59341 18.74 4.04173 14.9389 5.68126 12.8812V20.9341C5.68126 21.3476 6.15 21.6066 6.50557 21.3828L10.55 18.8518C11.1444 18.4773 11.9486 18.987 11.7863 19.7111C11.741 19.9234 11.6097 20.103 11.4285 20.2183L8.07253 22.3195C7.89137 22.4334 7.79629 22.6444 7.82796 22.8544C8.32161 25.7527 8.14495 28.1792 7.29355 30.2723C7.27111 30.3227 7.25733 30.3765 7.2528 30.4313L7.20297 31.1499H2.51094V31.1498ZM9.44933 33.9391H1.57347V32.2102H9.44941V33.9391H9.44933ZM25.7311 1.80983L28.4802 4.52139H26.8135C26.2157 4.52139 25.731 4.04415 25.731 3.45653V1.80983H25.7311ZM34.5671 31.1574C34.6984 29.4661 34.6486 26.9721 34.5444 26.5261C33.491 21.9871 33.8865 14.2516 30.3189 11.369V5.05176C30.3189 4.91148 30.2601 4.77651 30.1604 4.67682L25.577 0.156383C25.5273 0.106793 25.468 0.0674368 25.4027 0.0405935C25.3374 0.0137502 25.2674 -4.72522e-05 25.1966 1.21581e-07H7.83704C6.65041 1.21581e-07 5.68126 0.95178 5.68126 2.12442V11.3691C2.11695 14.2488 2.50049 21.9903 1.45564 26.5261C1.35147 26.9721 1.30164 29.466 1.43297 31.1574C0.907654 31.2182 0.5 31.6601 0.5 32.1955V33.9539C0.5 34.5304 0.975569 35 1.5598 35H9.46741C10.0516 35 10.5272 34.5304 10.5272 33.9539V32.1955C10.5272 31.6186 10.0516 31.1498 9.46741 31.1498H8.28078L8.32153 30.5903C8.41211 30.3593 8.49361 30.1238 8.57518 29.8857H27.4249C27.5023 30.123 27.5868 30.358 27.6785 30.5903L27.7192 31.1498H26.5326C25.9484 31.1498 25.4728 31.6186 25.4728 32.1955V33.9539C25.4728 34.5304 25.9484 35 26.5326 35H34.4402C35.0244 35 35.5 34.5304 35.5 33.9539V32.1955C35.5001 31.6601 35.0925 31.2182 34.5671 31.1574ZM19.8977 15.7782L20.7944 16.7608C20.9929 16.981 21.3303 16.9959 21.5507 16.8029L23.7835 14.8371C24.0054 14.6418 24.0281 14.3067 23.8288 14.0882C23.6295 13.8696 23.2899 13.85 23.0679 14.0453L21.2337 15.6594L20.6993 15.07C20.6037 14.9652 20.47 14.9021 20.3273 14.8945C20.1847 14.8868 20.0448 14.9353 19.9384 15.0293C19.7211 15.2255 19.6984 15.5606 19.8977 15.7782ZM23.9557 25.9846C23.9557 25.9148 23.9418 25.8457 23.9147 25.7813C23.8876 25.7168 23.8478 25.6583 23.7978 25.609C23.7477 25.5598 23.6883 25.5207 23.6229 25.4941C23.5575 25.4676 23.4875 25.454 23.4168 25.4541H12.5789C12.2845 25.4541 12.0445 25.6919 12.0445 25.9846C12.0445 26.2773 12.2846 26.5146 12.5789 26.5146H23.4168C23.7157 26.5146 23.9557 26.2773 23.9557 25.9846ZM19.8977 10.9275C19.6984 10.7099 19.721 10.3748 19.9384 10.1786C20.045 10.0848 20.1849 10.0365 20.3275 10.0442C20.4701 10.0519 20.6038 10.115 20.6993 10.2197L21.2337 10.8087L23.0679 9.19457C23.2898 8.99972 23.6296 9.01899 23.8288 9.23747C24.0282 9.45602 24.0055 9.79115 23.7836 9.98639L21.5508 11.953C21.3302 12.1448 20.993 12.131 20.7945 11.911L19.8977 10.9275ZM12.0897 22.8024C12.0897 22.7327 12.1037 22.6636 12.1308 22.5991C12.1579 22.5347 12.1976 22.4762 12.2477 22.4269C12.2977 22.3776 12.3571 22.3386 12.4225 22.312C12.4879 22.2854 12.5579 22.2718 12.6287 22.272H22.8053C22.9479 22.272 23.0846 22.3279 23.1854 22.4273C23.2863 22.5268 23.3429 22.6618 23.3429 22.8024C23.3429 22.9431 23.2863 23.078 23.1854 23.1775C23.0846 23.277 22.9479 23.3329 22.8053 23.3329H12.6287C12.5579 23.333 12.4879 23.3194 12.4225 23.2928C12.3572 23.2663 12.2977 23.2272 12.2477 23.1779C12.1976 23.1287 12.1579 23.0701 12.1308 23.0057C12.1037 22.9413 12.0898 22.8722 12.0897 22.8024ZM19.8977 6.07777C19.6984 5.85921 19.721 5.52408 19.9384 5.32797C20.045 5.23418 20.1849 5.18584 20.3275 5.19354C20.4701 5.20124 20.6038 5.26434 20.6993 5.36905L21.2337 5.9589L23.0679 4.34439C23.2898 4.14955 23.6296 4.16834 23.8288 4.38682C24.0282 4.60529 24.0055 4.94137 23.7836 5.13574L21.5508 7.10235C21.3302 7.2941 20.9931 7.28038 20.7945 7.06032L19.8977 6.07777ZM17.6694 15.8765H10.8035V12.4062C10.8035 10.5387 12.3433 9.01899 14.2364 9.01899C16.1296 9.01899 17.6694 10.5387 17.6694 12.4062V15.8765ZM12.5064 6.25025C12.5064 5.30822 13.2809 4.54193 14.2365 4.54193C15.1922 4.54193 15.9666 5.3083 15.9666 6.25025C15.9666 7.1918 15.1921 7.9577 14.2365 7.95857C13.2809 7.9577 12.5064 7.1918 12.5064 6.25025ZM18.7428 16.407C18.7428 16.7002 18.5028 16.9374 18.2084 16.9374H10.2646C9.97014 16.9374 9.73015 16.7002 9.73015 16.407V12.4062C9.73015 10.5973 10.8261 9.03913 12.4022 8.34382C11.8089 7.83621 11.4285 7.08593 11.4285 6.25025C11.4285 4.72377 12.6876 3.48103 14.2365 3.48103C15.7854 3.48103 17.0445 4.72377 17.0445 6.25025C17.0445 7.08585 16.6641 7.83613 16.0708 8.34469C17.6423 9.03913 18.7429 10.5973 18.7429 12.4062V16.407H18.7428Z" fill="#063254"/>
</svg>
