<svg width="36" height="35" viewBox="0 0 36 35" fill="none" xmlns="http://www.w3.org/2000/svg">
<mask id="mask0_1_6902" style="mask-type:luminance" maskUnits="userSpaceOnUse" x="0" y="0" width="36" height="35">
<path d="M35 34.5V0.5H1V34.5H35Z" fill="white" stroke="white"/>
</mask>
<g mask="url(#mask0_1_6902)">
<path d="M4.77271 31.4968V34.4827" stroke="#063254" stroke-miterlimit="10" stroke-linecap="round" stroke-linejoin="round"/>
<path d="M19.8682 31.4968V34.4827" stroke="#063254" stroke-miterlimit="10" stroke-linecap="round" stroke-linejoin="round"/>
</g>
<path d="M24.0671 3.81525H31.7755" stroke="#063254" stroke-miterlimit="10" stroke-linecap="round" stroke-linejoin="round"/>
<path d="M24.0671 6.98846H31.7755" stroke="#063254" stroke-miterlimit="10" stroke-linecap="round" stroke-linejoin="round"/>
<mask id="mask1_1_6902" style="mask-type:luminance" maskUnits="userSpaceOnUse" x="0" y="0" width="36" height="35">
<path d="M35 34.5V0.5H1V34.5H35Z" fill="white" stroke="white"/>
</mask>
<g mask="url(#mask1_1_6902)">
<path d="M16.3591 12.6342V11.5528C16.3591 10.984 15.898 10.5229 15.3292 10.5229C15.1839 10.5229 15.0402 10.5536 14.9076 10.6132C14.094 10.9783 13.2123 11.1671 12.3205 11.1671C11.4287 11.1671 10.547 10.9783 9.73334 10.6132C9.60073 10.5537 9.457 10.5229 9.31163 10.5229C8.74281 10.5229 8.28173 10.984 8.28173 11.5528V12.6342C8.28173 13.2149 7.81094 13.6858 7.23022 13.6858V16.1226C7.23022 18.9338 9.50919 21.2128 12.3204 21.2128C15.1316 21.2128 17.4107 18.9338 17.4107 16.1226V13.6858C16.8299 13.6858 16.3591 13.2149 16.3591 12.6342Z" stroke="#063254" stroke-miterlimit="10" stroke-linecap="round" stroke-linejoin="round"/>
<path d="M7.23028 13.6857H6.34667C5.90568 13.6857 5.5481 14.0433 5.5481 14.4843V15.4021C5.5481 15.8432 5.90568 16.2007 6.34667 16.2007H7.23227C7.23186 16.1746 7.23028 16.1487 7.23028 16.1225" stroke="#063254" stroke-miterlimit="10" stroke-linecap="round" stroke-linejoin="round"/>
<path d="M17.4107 16.1225C17.4107 16.1487 17.4091 16.1746 17.4087 16.2007H18.2943C18.7353 16.2007 19.0929 15.8432 19.0929 15.4021V14.4842C19.0929 14.0433 18.7353 13.6857 18.2943 13.6857H17.4106H17.4107" stroke="#063254" stroke-miterlimit="10" stroke-linecap="round" stroke-linejoin="round"/>
<path d="M18.4547 13.702V10.6858C18.4547 8.28941 16.5121 6.3467 14.1156 6.3467H10.5251C8.12867 6.3467 6.18604 8.28941 6.18604 10.6858V13.702" stroke="#063254" stroke-miterlimit="10" stroke-linecap="round" stroke-linejoin="round"/>
<path d="M12.3204 25.1044L13.6295 26.2366C13.8261 26.4067 14.0777 26.4999 14.3377 26.4991C14.5977 26.4983 14.8487 26.4035 15.0442 26.2322L17.749 23.8635L16.9423 22.6571C16.6634 22.2401 16.0886 22.1485 15.6939 22.4581L12.3204 25.1044ZM12.3204 25.1044L11.0113 26.2366C10.8147 26.4067 10.5631 26.4999 10.3031 26.4991C10.0431 26.4983 9.79214 26.4035 9.59655 26.2322L6.89185 23.8635L7.69855 22.6571C7.97746 22.2401 8.55223 22.1485 8.94693 22.4581L12.3204 25.1044Z" stroke="#063254" stroke-miterlimit="10" stroke-linecap="round" stroke-linejoin="round"/>
<path d="M1.0127 31.8435V32.343C1.0127 33.5171 1.96453 34.4689 3.13874 34.4689H21.5023C22.6764 34.4689 23.6282 33.5171 23.6282 32.343V28.943C23.6282 26.8873 22.2513 25.0864 20.2675 24.5475L17.7491 23.8635" stroke="#063254" stroke-miterlimit="10" stroke-linecap="round" stroke-linejoin="round"/>
<path d="M6.89187 23.8635L4.37338 24.5476C2.38959 25.0865 1.0127 26.8873 1.0127 28.9431V29.4467" stroke="#063254" stroke-miterlimit="10" stroke-linecap="round" stroke-linejoin="round"/>
<path d="M14.9226 23.0632V20.4974" stroke="#063254" stroke-miterlimit="10" stroke-linecap="round" stroke-linejoin="round"/>
<path d="M9.71851 20.4974V23.0632" stroke="#063254" stroke-miterlimit="10" stroke-linecap="round" stroke-linejoin="round"/>
<path d="M34.9873 2.61688V2.21609C34.9873 1.27786 34.2268 0.51729 33.2885 0.51729H22.5137C21.5755 0.51729 20.8149 1.27786 20.8149 2.21609V8.84736C20.8149 9.78552 21.5755 10.5461 22.5137 10.5461H23.2489C23.2945 10.5461 23.3394 10.5563 23.3804 10.5759C23.4215 10.5955 23.4577 10.6241 23.4863 10.6595C23.5149 10.6949 23.5352 10.7362 23.5457 10.7805C23.5563 10.8247 23.5568 10.8708 23.5473 10.9153L22.8242 14.2862C22.784 14.4739 23.0131 14.5984 23.1488 14.4626L26.7856 10.8204C26.8724 10.7335 26.9755 10.6645 27.089 10.6174C27.2025 10.5703 27.3242 10.5461 27.4471 10.5461H33.2885C34.2268 10.5461 34.9873 9.78552 34.9873 8.84736V5.01376" stroke="#063254" stroke-miterlimit="10" stroke-linecap="round" stroke-linejoin="round"/>
</g>
</svg>
