<svg width="36" height="35" viewBox="0 0 36 35" fill="none" xmlns="http://www.w3.org/2000/svg">
<path d="M16.7631 15.2136C16.7631 15.0867 16.8135 14.965 16.9033 14.8752C16.993 14.7855 17.1147 14.7351 17.2416 14.7351H27.7826C27.8455 14.7351 27.9077 14.7474 27.9657 14.7715C28.0238 14.7955 28.0766 14.8308 28.121 14.8752C28.1654 14.9197 28.2007 14.9724 28.2247 15.0305C28.2488 15.0885 28.2611 15.1507 28.2611 15.2136C28.2611 15.2764 28.2488 15.3386 28.2247 15.3967C28.2007 15.4548 28.1654 15.5075 28.121 15.5519C28.0766 15.5964 28.0238 15.6316 27.9657 15.6557C27.9077 15.6797 27.8455 15.6921 27.7826 15.6921H17.2416C17.1147 15.6921 16.993 15.6417 16.9033 15.5519C16.8135 15.4622 16.7631 15.3405 16.7631 15.2136ZM17.2416 13.6711H22.9405C23.0674 13.6711 23.1892 13.6207 23.2789 13.531C23.3686 13.4412 23.419 13.3195 23.419 13.1926C23.419 13.0657 23.3686 12.944 23.2789 12.8542C23.1892 12.7645 23.0674 12.7141 22.9405 12.7141H17.2417C17.1148 12.7141 16.9931 12.7645 16.9034 12.8542C16.8136 12.944 16.7632 13.0657 16.7632 13.1926C16.7632 13.3195 16.8136 13.4412 16.9034 13.531C16.9931 13.6207 17.1148 13.6711 17.2417 13.6711H17.2416ZM17.2416 24.6718H22.9405C23.0674 24.6718 23.1892 24.6214 23.2789 24.5316C23.3686 24.4419 23.419 24.3202 23.419 24.1933C23.419 24.0664 23.3686 23.9447 23.2789 23.8549C23.1892 23.7652 23.0674 23.7148 22.9405 23.7148H17.2417C17.1148 23.7148 16.9931 23.7652 16.9034 23.8549C16.8136 23.9447 16.7632 24.0664 16.7632 24.1933C16.7632 24.3202 16.8136 24.4419 16.9034 24.5316C16.9931 24.6214 17.1148 24.6718 17.2417 24.6718H17.2416ZM17.2416 19.1705H22.9405C23.0674 19.1705 23.1892 19.1201 23.2789 19.0303C23.3686 18.9406 23.419 18.8189 23.419 18.692C23.419 18.5651 23.3686 18.4434 23.2789 18.3536C23.1892 18.2639 23.0674 18.2135 22.9405 18.2135H17.2417C17.1148 18.2135 16.9931 18.2639 16.9034 18.3536C16.8136 18.4434 16.7632 18.5651 16.7632 18.692C16.7632 18.8189 16.8136 18.9406 16.9034 19.0303C16.9931 19.1201 17.1148 19.1705 17.2417 19.1705H17.2416ZM14.8395 29.0381L12.5213 31.3564L11.5985 30.4336C11.554 30.3892 11.5013 30.3539 11.4432 30.3299C11.3852 30.3058 11.3229 30.2934 11.2601 30.2934C11.1973 30.2934 11.135 30.3058 11.077 30.3299C11.0189 30.3539 10.9662 30.3892 10.9217 30.4336C10.8773 30.478 10.842 30.5308 10.818 30.5888C10.7939 30.6469 10.7816 30.7091 10.7816 30.772C10.7816 30.8348 10.7939 30.897 10.818 30.9551C10.842 31.0132 10.8773 31.0659 10.9217 31.1104L12.1832 32.3719C12.2277 32.4163 12.2804 32.4515 12.3385 32.4756C12.3965 32.4997 12.4588 32.512 12.5216 32.512C12.5844 32.512 12.6467 32.4997 12.7047 32.4756C12.7628 32.4515 12.8155 32.4163 12.86 32.3719L15.5167 29.7152C15.6064 29.6255 15.6569 29.5037 15.6569 29.3768C15.6569 29.2499 15.6064 29.1282 15.5167 29.0385C15.427 28.9487 15.3052 28.8983 15.1783 28.8983C15.0514 28.8983 14.9297 28.9487 14.8399 29.0385L14.8395 29.0381ZM16.7631 31.7155C16.7631 31.8424 16.8135 31.9641 16.9033 32.0538C16.993 32.1436 17.1147 32.194 17.2416 32.194H27.7826C27.9095 32.194 28.0313 32.1436 28.121 32.0538C28.2107 31.9641 28.2611 31.8424 28.2611 31.7155C28.2611 31.5886 28.2107 31.4669 28.121 31.3771C28.0313 31.2874 27.9095 31.237 27.7826 31.237H17.2416C17.1147 31.237 16.993 31.2874 16.9033 31.3771C16.8135 31.4669 16.7631 31.5886 16.7631 31.7155ZM14.8395 12.5362L12.5213 14.8545L11.5985 13.9316C11.554 13.8872 11.5013 13.852 11.4432 13.8279C11.3852 13.8039 11.3229 13.7915 11.2601 13.7915C11.1973 13.7915 11.135 13.8039 11.077 13.8279C11.0189 13.852 10.9662 13.8872 10.9217 13.9316C10.8773 13.9761 10.842 14.0288 10.818 14.0869C10.7939 14.145 10.7816 14.2072 10.7816 14.27C10.7816 14.3329 10.7939 14.3951 10.818 14.4532C10.842 14.5112 10.8773 14.564 10.9217 14.6084L12.1832 15.8698C12.2277 15.9143 12.2804 15.9495 12.3385 15.9736C12.3965 15.9976 12.4588 16.01 12.5216 16.01C12.5844 16.01 12.6467 15.9976 12.7047 15.9736C12.7628 15.9495 12.8155 15.9143 12.86 15.8698L15.5167 13.2132C15.6064 13.1234 15.6569 13.0017 15.6569 12.8748C15.6569 12.7479 15.6064 12.6262 15.5167 12.5364C15.427 12.4467 15.3052 12.3963 15.1783 12.3963C15.0514 12.3963 14.9297 12.4467 14.8399 12.5364L14.8395 12.5362ZM17.2417 30.1729H22.9407C23.0676 30.1729 23.1893 30.1225 23.279 30.0327C23.3688 29.943 23.4192 29.8213 23.4192 29.6944C23.4192 29.5674 23.3688 29.4457 23.279 29.356C23.1893 29.2663 23.0676 29.2158 22.9407 29.2158H17.2417C17.1148 29.2158 16.9931 29.2663 16.9034 29.356C16.8136 29.4457 16.7632 29.5674 16.7632 29.6944C16.7632 29.8213 16.8136 29.943 16.9034 30.0327C16.9931 30.1225 17.1148 30.1729 17.2417 30.1729ZM14.8395 23.5368L12.5213 25.8551L11.5985 24.9322C11.5087 24.8425 11.387 24.7921 11.2601 24.7921C11.1332 24.7921 11.0115 24.8425 10.9217 24.9322C10.832 25.022 10.7816 25.1437 10.7816 25.2706C10.7816 25.3975 10.832 25.5193 10.9217 25.609L12.1832 26.8705C12.2277 26.9149 12.2804 26.9502 12.3385 26.9742C12.3965 26.9983 12.4588 27.0107 12.5216 27.0107C12.5844 27.0107 12.6467 26.9983 12.7047 26.9742C12.7628 26.9502 12.8155 26.9149 12.86 26.8705L15.5167 24.2139C15.6064 24.1241 15.6569 24.0024 15.6569 23.8755C15.6569 23.7486 15.6064 23.6268 15.5167 23.5371C15.427 23.4473 15.3052 23.3969 15.1783 23.3969C15.0514 23.3969 14.9297 23.4473 14.8399 23.5371L14.8395 23.5368ZM12.1829 21.3711C12.2727 21.4608 12.3944 21.5113 12.5213 21.5113C12.6483 21.5112 12.77 21.4607 12.8598 21.371L15.5166 18.7124C15.6063 18.6225 15.6567 18.5008 15.6567 18.3738C15.6566 18.2468 15.6061 18.1251 15.5163 18.0354C15.4265 17.9456 15.3047 17.8952 15.1778 17.8953C15.0508 17.8953 14.9291 17.9458 14.8393 18.0356L12.5211 20.3556L11.5983 19.4327C11.5085 19.343 11.3868 19.2926 11.2599 19.2926C11.133 19.2926 11.0113 19.343 10.9215 19.4327C10.8318 19.5225 10.7814 19.6442 10.7814 19.7711C10.7814 19.898 10.8318 20.0197 10.9215 20.1095L12.1829 21.3711ZM33.6933 17.3012L33.527 17.5891L33.5263 17.5904L33.5258 17.5913L30.5426 22.7581V34.5215C30.5426 34.6484 30.4922 34.7701 30.4024 34.8598C30.3127 34.9496 30.191 35 30.0641 35H8.97717C8.85026 35 8.72855 34.9496 8.63881 34.8598C8.54907 34.7701 8.49865 34.6484 8.49865 34.5215V13.8508C8.34931 13.839 8.20044 13.8218 8.05234 13.7992C7.96049 13.7851 7.87474 13.7446 7.80555 13.6826C7.73635 13.6206 7.68671 13.5397 7.66269 13.45L7.36109 12.3252C7.00473 12.2172 6.66 12.074 6.332 11.8977L5.32391 12.4809C5.24373 12.5274 5.15179 12.5495 5.05926 12.5446C4.96673 12.5398 4.87761 12.5082 4.80274 12.4536C4.29382 12.082 3.84546 11.634 3.47356 11.1254C3.41845 11.0504 3.3864 10.961 3.38133 10.8681C3.37626 10.7752 3.39837 10.6828 3.44498 10.6023L4.02829 9.59417C3.85206 9.26629 3.70892 8.92168 3.60098 8.56543L2.47626 8.26397C2.38657 8.24001 2.30579 8.19049 2.24375 8.12142C2.18171 8.05236 2.14111 7.96674 2.12688 7.875C2.03062 7.25317 2.03062 6.62023 2.12688 5.9984C2.14098 5.90654 2.18154 5.82077 2.24358 5.75158C2.30562 5.68238 2.38648 5.63276 2.47626 5.60875L3.60057 5.30797C3.70805 4.95056 3.85132 4.60492 4.02822 4.27629L3.44526 3.26867C3.39879 3.18835 3.37667 3.09625 3.38161 3.00358C3.38655 2.91091 3.41833 2.82168 3.47308 2.74675C3.84511 2.23926 4.29294 1.79198 4.80089 1.42058C4.87578 1.36555 4.96507 1.33351 5.05787 1.32839C5.15066 1.32327 5.24294 1.34528 5.32343 1.39173L6.3318 1.97354C6.65978 1.79708 7.00471 1.65413 7.36136 1.54684L7.66214 0.422942C7.68609 0.333644 7.7354 0.253196 7.8041 0.191326C7.8728 0.129455 7.95795 0.0888117 8.04926 0.074309C8.67201 -0.0242814 9.30639 -0.0242814 9.92914 0.074309C10.0207 0.0886044 10.1061 0.129155 10.175 0.19104C10.2439 0.252925 10.2934 0.333485 10.3174 0.422942L10.6182 1.54684C10.9753 1.65436 11.3207 1.79733 11.6493 1.97361L12.6581 1.39159C12.7384 1.34524 12.8305 1.32321 12.923 1.32819C13.0156 1.33316 13.1048 1.36493 13.1796 1.41962C13.687 1.79117 14.1343 2.23844 14.5058 2.74579C14.5608 2.82068 14.5929 2.90998 14.598 3.00277C14.6031 3.09556 14.5811 3.18784 14.5346 3.26833L13.9526 4.27718C14.1285 4.60584 14.2714 4.95116 14.3791 5.30804L15.5034 5.60882C15.593 5.6328 15.6737 5.68229 15.7357 5.75129C15.7977 5.82028 15.8383 5.9058 15.8526 5.99744C15.8702 6.11071 15.8834 6.22453 15.8947 6.33862H25.9985C26.0614 6.33862 26.1236 6.351 26.1817 6.37506C26.2398 6.39911 26.2925 6.43438 26.337 6.47883L30.4024 10.5442C30.4468 10.5887 30.4821 10.6414 30.5061 10.6995C30.5302 10.7576 30.5426 10.8198 30.5426 10.8827V15.2273C30.8196 14.8571 31.2226 14.6011 31.6754 14.5075C32.1283 14.414 32.5997 14.4895 33.0008 14.7197H33.0012C33.4343 14.9712 33.7502 15.3839 33.8799 15.8676C34.0096 16.3514 33.9425 16.8668 33.6933 17.3012ZM26.4772 10.4043H28.9083L26.4772 7.97282V10.4043ZM8.21489 11.8132L8.50351 12.8911C8.66032 12.9059 8.81682 12.9135 8.973 12.9138H8.97717C8.98113 12.9138 8.98489 12.9143 8.98886 12.9145C9.15192 12.9145 9.3143 12.9069 9.47599 12.8919L9.76474 11.8134C9.78686 11.7308 9.83073 11.6556 9.89179 11.5956C9.95284 11.5357 10.0288 11.4933 10.1119 11.4727C10.5663 11.3598 11.0012 11.1791 11.4017 10.9366C11.4751 10.8923 11.5589 10.8685 11.6446 10.8676C11.7302 10.8668 11.8146 10.889 11.8887 10.9318L12.8574 11.4913C13.1076 11.2839 13.3377 11.0535 13.5447 10.803L12.9866 9.83562C12.9438 9.76147 12.9217 9.67719 12.9225 9.59159C12.9234 9.50598 12.9472 9.42217 12.9915 9.3489C13.2333 8.94814 13.4134 8.51323 13.5256 8.05882C13.5462 7.97581 13.5887 7.89984 13.6486 7.83881C13.7086 7.77778 13.7838 7.73391 13.8664 7.71176L14.9443 7.42315C14.975 7.09974 14.9751 6.77417 14.9447 6.45073L13.8664 6.16198C13.7837 6.13981 13.7084 6.09587 13.6485 6.03475C13.5886 5.97362 13.5461 5.89755 13.5255 5.81445C13.413 5.35934 13.2328 4.9237 12.991 4.52204C12.947 4.44883 12.9233 4.36515 12.9225 4.2797C12.9218 4.19425 12.9439 4.11016 12.9866 4.03614L13.5444 3.06934C13.3376 2.81921 13.1077 2.5891 12.8578 2.38205L11.8904 2.93946C11.8164 2.98216 11.7323 3.00426 11.6469 3.00347C11.5614 3.00267 11.4778 2.97901 11.4045 2.93494C11.0036 2.69272 10.5683 2.51262 10.1134 2.40078C10.0301 2.38038 9.95377 2.33795 9.89244 2.27794C9.83111 2.21793 9.78703 2.14255 9.76481 2.05967L9.47592 0.980686C9.15271 0.949355 8.82723 0.949195 8.50399 0.980207L8.21496 2.05967C8.19274 2.14255 8.14866 2.21793 8.08733 2.27794C8.026 2.33795 7.94967 2.38038 7.86633 2.40078C7.41215 2.51218 6.97763 2.69221 6.57776 2.93467C6.50447 2.97894 6.42066 3.00273 6.33505 3.00357C6.24944 3.00441 6.16517 2.98227 6.09104 2.93946L5.12402 2.38178C4.87345 2.58851 4.64286 2.81835 4.4353 3.06824L4.99476 4.03519C5.03783 4.10961 5.06006 4.19427 5.0591 4.28026C5.05814 4.36624 5.03402 4.45038 4.98929 4.52382C4.74616 4.92407 4.56568 5.35915 4.4541 5.81397C4.43357 5.8971 4.39111 5.9732 4.33115 6.03433C4.27118 6.09546 4.19592 6.13938 4.11319 6.16151L3.03517 6.45019C3.00448 6.77357 3.00434 7.09912 3.03476 7.42253L4.11319 7.71128C4.19585 7.73339 4.27107 7.77725 4.33102 7.8383C4.39097 7.89935 4.43345 7.97536 4.45403 8.05841C4.56686 8.51288 4.74756 8.94775 4.99004 9.34835C5.0344 9.4217 5.05824 9.50562 5.05907 9.59134C5.0599 9.67706 5.03769 9.76142 4.99476 9.83562L4.43544 10.8024C4.64242 11.0532 4.87265 11.2838 5.12307 11.4912L6.09056 10.9315C6.16475 10.8885 6.24911 10.8663 6.33483 10.8671C6.42054 10.868 6.50447 10.8918 6.57782 10.9361C6.97843 11.1786 7.4133 11.3593 7.86777 11.4722C7.9508 11.4928 8.0268 11.5352 8.08785 11.5952C8.1489 11.6551 8.19277 11.7303 8.21489 11.8129V11.8132ZM29.5853 24.4161L27.4109 28.182C27.3741 28.2457 27.3232 28.3 27.262 28.3408L24.6364 30.0926C24.5624 30.142 24.4761 30.1698 24.3871 30.1729C24.2982 30.1759 24.2101 30.1541 24.1329 30.1099C24.0557 30.0657 23.9923 30.0008 23.9499 29.9226C23.9075 29.8443 23.8878 29.7558 23.8929 29.6669L24.0638 26.6928H17.2415C17.1146 26.6928 16.9929 26.6424 16.9032 26.5527C16.8134 26.4629 16.763 26.3412 16.763 26.2143C16.763 26.0874 16.8134 25.9657 16.9032 25.876C16.9929 25.7862 17.1146 25.7358 17.2415 25.7358H24.4591L27.0819 21.1938H17.2417C17.1148 21.1938 16.9931 21.1434 16.9034 21.0536C16.8136 20.9639 16.7632 20.8422 16.7632 20.7153C16.7632 20.5884 16.8136 20.4667 16.9034 20.3769C16.9931 20.2872 17.1148 20.2368 17.2417 20.2368H27.6348L29.5853 16.8593V11.3613H25.9985C25.8716 11.3613 25.7499 11.3109 25.6602 11.2212C25.5704 11.1314 25.52 11.0097 25.52 10.8828V7.29593H15.9128C15.9017 7.48941 15.8816 7.68228 15.8527 7.87391C15.8387 7.96584 15.7982 8.05168 15.7361 8.12096C15.6741 8.19023 15.5932 8.23992 15.5034 8.26397L14.3788 8.56475C14.2713 8.92114 14.1286 9.26594 13.9527 9.59404L14.5346 10.6025C14.5809 10.6828 14.6029 10.7748 14.598 10.8674C14.593 10.9599 14.5612 11.0491 14.5066 11.1239C14.1351 11.632 13.6879 12.0799 13.1804 12.4521C13.1055 12.5071 13.0161 12.5392 12.9233 12.5443C12.8305 12.5494 12.7381 12.5273 12.6576 12.4808L11.6475 11.8973C11.3194 12.0736 10.9747 12.2169 10.6183 12.3249L10.3171 13.4497C10.2931 13.5393 10.2436 13.62 10.1746 13.6819C10.1056 13.7439 10.0201 13.7845 9.92853 13.7988C9.77171 13.8232 9.61405 13.8415 9.45555 13.8534V34.043H29.5853V24.4161ZM24.9037 28.7637L26.0907 27.9718L24.986 27.334L24.9037 28.7637ZM32.4579 17.5258L30.844 16.5927L25.2064 26.3556L26.8216 27.2881L29.6415 22.4037C29.6434 22.4001 29.6456 22.3969 29.6475 22.3933L32.4579 17.5258ZM32.521 15.5482C32.3288 15.4387 32.104 15.4009 31.8866 15.4415C31.6692 15.4821 31.4732 15.5985 31.3335 15.77L32.9256 16.6905C33.0046 16.4831 33.0073 16.2543 32.9332 16.0451C32.8592 15.8359 32.7132 15.6598 32.5213 15.5482H32.521ZM8.99077 11.0009C8.18662 11.0013 7.4004 10.7632 6.73158 10.3167C6.06276 9.8702 5.54137 9.2354 5.23336 8.49256C4.92535 7.74973 4.84455 6.93224 5.0012 6.14349C5.15784 5.35473 5.54488 4.63015 6.11337 4.06138C6.68186 3.49262 7.40625 3.10522 8.19493 2.9482C8.98361 2.79117 9.80114 2.87156 10.5441 3.17921C11.2871 3.48686 11.9222 4.00794 12.369 4.67654C12.8158 5.34515 13.0543 6.13124 13.0543 6.9354C13.053 8.01292 12.6246 9.04598 11.8629 9.80809C11.1011 10.5702 10.0683 10.9991 8.99077 11.0009ZM8.99077 10.0438C9.60551 10.0438 10.2064 9.86155 10.7176 9.52002C11.2287 9.17849 11.6271 8.69306 11.8623 8.12512C12.0976 7.55718 12.1591 6.93223 12.0392 6.3293C11.9193 5.72638 11.6233 5.17256 11.1886 4.73787C10.7539 4.30319 10.2001 4.00716 9.59715 3.88723C8.99422 3.76731 8.36927 3.82886 7.80133 4.06411C7.23339 4.29936 6.74796 4.69774 6.40643 5.20887C6.0649 5.72001 5.88261 6.32094 5.88261 6.93568C5.88326 7.75979 6.21095 8.54995 6.79371 9.13266C7.37647 9.71537 8.16666 10.043 8.99077 10.0436V10.0438ZM11.1604 5.35514C11.116 5.3107 11.0632 5.27545 11.0052 5.2514C10.9471 5.22735 10.8849 5.21497 10.8221 5.21497C10.7592 5.21497 10.697 5.22735 10.6389 5.2514C10.5809 5.27545 10.5281 5.3107 10.4837 5.35514L8.33767 7.50121L7.49575 6.66067C7.40592 6.57099 7.28414 6.52067 7.1572 6.52077C7.03027 6.52088 6.90857 6.57141 6.81889 6.66125C6.72921 6.75108 6.67889 6.87286 6.679 6.9998C6.67911 7.12673 6.72964 7.24843 6.81947 7.33811L7.99963 8.51621C8.04407 8.56065 8.09682 8.5959 8.15488 8.61996C8.21294 8.64401 8.27517 8.65638 8.33801 8.65638C8.40085 8.65638 8.46308 8.64401 8.52114 8.61996C8.5792 8.5959 8.63195 8.56065 8.67639 8.51621L11.1606 6.03203C11.2051 5.98758 11.2404 5.93479 11.2645 5.87668C11.2886 5.81858 11.3009 5.7563 11.3009 5.69341C11.3009 5.63051 11.2885 5.56824 11.2644 5.51015C11.2403 5.45206 11.2049 5.39929 11.1604 5.35487V5.35514Z" fill="#063254"/>
</svg>
